<svg width="25" height="25" viewBox="0 0 25 25" fill="none" xmlns="http://www.w3.org/2000/svg">
<path d="M7.20154 22.1546C6.65154 22.1546 6.18087 21.959 5.78954 21.5676C5.39754 21.1756 5.20154 20.7046 5.20154 20.1546C5.20154 19.6046 5.39754 19.1336 5.78954 18.7416C6.18087 18.3503 6.65154 18.1546 7.20154 18.1546C7.75154 18.1546 8.2222 18.3503 8.61354 18.7416C9.00554 19.1336 9.20154 19.6046 9.20154 20.1546C9.20154 20.7046 9.00554 21.1756 8.61354 21.5676C8.2222 21.959 7.75154 22.1546 7.20154 22.1546ZM17.2015 22.1546C16.6515 22.1546 16.1809 21.959 15.7895 21.5676C15.3975 21.1756 15.2015 20.7046 15.2015 20.1546C15.2015 19.6046 15.3975 19.1336 15.7895 18.7416C16.1809 18.3503 16.6515 18.1546 17.2015 18.1546C17.7515 18.1546 18.2225 18.3503 18.6145 18.7416C19.0059 19.1336 19.2015 19.6046 19.2015 20.1546C19.2015 20.7046 19.0059 21.1756 18.6145 21.5676C18.2225 21.959 17.7515 22.1546 17.2015 22.1546ZM7.20154 17.1546C6.45154 17.1546 5.88487 16.8253 5.50154 16.1666C5.11821 15.5086 5.10154 14.8546 5.45154 14.2046L6.80154 11.7546L3.20154 4.15463H2.17654C1.8932 4.15463 1.65987 4.05863 1.47654 3.86663C1.2932 3.6753 1.20154 3.43797 1.20154 3.15463C1.20154 2.8713 1.29754 2.63363 1.48954 2.44163C1.68087 2.2503 1.9182 2.15463 2.20154 2.15463H3.82654C4.00987 2.15463 4.18487 2.20463 4.35154 2.30463C4.5182 2.40463 4.6432 2.5463 4.72654 2.72963L5.40154 4.15463H20.1515C20.6015 4.15463 20.9099 4.3213 21.0765 4.65463C21.2432 4.98797 21.2349 5.33797 21.0515 5.70463L17.5015 12.1046C17.3182 12.438 17.0765 12.6963 16.7765 12.8796C16.4765 13.063 16.1349 13.1546 15.7515 13.1546H8.30154L7.20154 15.1546H18.2265C18.5099 15.1546 18.7432 15.2503 18.9265 15.4416C19.1099 15.6336 19.2015 15.8713 19.2015 16.1546C19.2015 16.438 19.1055 16.6753 18.9135 16.8666C18.7222 17.0586 18.4849 17.1546 18.2015 17.1546H7.20154Z" fill="url(#paint0_linear_1_118)"/>
<defs>
<linearGradient id="paint0_linear_1_118" x1="-1.73847" y1="1.66099" x2="22.4624" y2="3.53348" gradientUnits="userSpaceOnUse">
<stop offset="0.270833" stop-color="#A3A3A3"/>
<stop offset="0.412103" stop-color="#CCCCCC"/>
<stop offset="0.551716" stop-color="white"/>
<stop offset="0.677083" stop-color="#CCCCCC"/>
<stop offset="0.833333" stop-color="#A3A3A3"/>
</linearGradient>
</defs>
</svg>
